<svg width="138" height="26" viewBox="0 0 138 26" fill="none" xmlns="http://www.w3.org/2000/svg">
<path d="M0.844 0.995999C0.844 0.612 2.22 0.42 4.972 0.42C5.604 0.42 6.416 0.448 7.408 0.504C8.4 0.552 8.912 0.624 8.944 0.719999C8.928 1.08 8.596 1.26 7.948 1.26C7.764 1.26 7.456 1.24 7.024 1.2C6.592 1.16 6.22 1.14 5.908 1.14C5.604 1.14 5.452 1.208 5.452 1.344C5.452 3.064 5.412 5.628 5.332 9.036C5.164 9.156 4.916 9.216 4.588 9.216C4.58 8.864 4.576 8.444 4.576 7.956L4.636 2.772C4.636 2.148 4.628 1.624 4.612 1.2C4.444 1.184 4.224 1.176 3.952 1.176C3.688 1.176 3.272 1.2 2.704 1.248C2.136 1.288 1.736 1.308 1.504 1.308C1.064 1.308 0.844 1.204 0.844 0.995999ZM9.17453 6.516L9.28253 1.14C9.28253 0.724 9.25853 0.44 9.21053 0.288C9.35453 0.16 9.57453 0.0959995 9.87053 0.0959995C9.99053 0.951999 10.0505 2.052 10.0505 3.396C10.0505 3.796 10.0145 4.724 9.94253 6.18C10.3185 4.156 10.9905 3.144 11.9585 3.144C12.3025 3.144 12.5665 3.328 12.7505 3.696C12.9425 4.056 13.0625 4.496 13.1105 5.016C13.1585 5.536 13.1985 6.056 13.2305 6.576C13.3105 7.824 13.5345 8.448 13.9025 8.448C13.9105 8.448 13.9865 8.424 14.1305 8.376C14.4505 8.28 14.6305 8.256 14.6705 8.304C14.6705 8.392 14.5465 8.504 14.2985 8.64C14.0505 8.768 13.8225 8.832 13.6145 8.832C13.2625 8.832 12.9905 8.652 12.7985 8.292C12.6145 7.924 12.4985 7.48 12.4505 6.96C12.4105 6.44 12.3785 5.924 12.3545 5.412C12.3385 4.892 12.2865 4.452 12.1985 4.092C12.1105 3.724 11.9625 3.54 11.7545 3.54C11.4985 3.54 11.2625 3.82 11.0465 4.38C10.8385 4.932 10.6745 5.544 10.5545 6.216C10.4345 6.888 10.2865 7.504 10.1105 8.064C9.94253 8.616 9.77053 8.892 9.59453 8.892C9.31453 8.892 9.17453 8.1 9.17453 6.516ZM15.8139 0.167999C15.8059 0.351999 15.8019 0.555999 15.8019 0.779999C15.8019 1.004 15.8139 1.236 15.8379 1.476C15.7259 1.604 15.5739 1.668 15.3819 1.668C15.1419 1.668 15.0219 1.476 15.0219 1.092C15.0219 1.076 15.0219 1.016 15.0219 0.912C15.0219 0.808 15.0219 0.716 15.0219 0.636C15.0299 0.548 15.0459 0.448 15.0699 0.335999C15.1259 0.143999 15.2499 0.0479994 15.4419 0.0479994C15.6339 0.0479994 15.7579 0.0879993 15.8139 0.167999ZM15.0459 6.048C15.0459 4.48 15.1259 3.576 15.2859 3.336C15.3419 3.248 15.4099 3.204 15.4899 3.204C15.5699 3.204 15.7019 3.248 15.8859 3.336C15.8459 4.016 15.8259 4.756 15.8259 5.556C15.8259 5.556 15.8339 6.44 15.8499 8.208C15.8499 8.456 15.7939 8.632 15.6819 8.736C15.5779 8.832 15.4779 8.88 15.3819 8.88C15.2939 8.88 15.2019 8.856 15.1059 8.808C15.0659 7.768 15.0459 6.848 15.0459 6.048ZM20.3763 4.2C20.3043 4.016 20.1683 3.872 19.9683 3.768C19.7683 3.664 19.5203 3.612 19.2243 3.612C18.9283 3.612 18.6483 3.7 18.3843 3.876C18.1283 4.052 18.0003 4.288 18.0003 4.584C18.0003 4.88 18.1203 5.116 18.3603 5.292C18.6083 5.46 18.9043 5.588 19.2483 5.676C19.6003 5.764 19.9523 5.86 20.3043 5.964C20.6563 6.06 20.9523 6.224 21.1923 6.456C21.4403 6.68 21.5643 6.976 21.5643 7.344C21.5643 7.88 21.3403 8.288 20.8923 8.568C20.4523 8.848 19.9203 8.988 19.2963 8.988C18.9283 8.988 18.4443 8.888 17.8443 8.688C17.2523 8.488 16.9563 8.248 16.9563 7.968C16.9563 7.76 17.1323 7.656 17.4843 7.656C17.5883 7.656 17.7243 7.72 17.8923 7.848C18.4043 8.224 18.9283 8.412 19.4643 8.412C19.7523 8.412 20.0003 8.364 20.2083 8.268C20.5923 8.084 20.7843 7.788 20.7843 7.38C20.7843 7.132 20.6603 6.932 20.4123 6.78C20.1723 6.628 19.8763 6.508 19.5243 6.42C19.1803 6.332 18.8323 6.236 18.4803 6.132C18.1283 6.028 17.8283 5.856 17.5803 5.616C17.3403 5.368 17.2203 5.056 17.2203 4.68C17.2203 4.192 17.4403 3.796 17.8803 3.492C18.3203 3.188 18.8643 3.036 19.5123 3.036C19.9523 3.036 20.3483 3.152 20.7003 3.384C21.0603 3.608 21.2403 3.936 21.2403 4.368C21.2403 4.656 21.0763 4.8 20.7483 4.8C20.6123 4.8 20.5203 4.776 20.4723 4.728C20.4323 4.68 20.4083 4.596 20.4003 4.476C20.4003 4.348 20.3923 4.256 20.3763 4.2ZM32.3298 2.22C32.2098 2.332 32.1058 2.412 32.0178 2.46C31.9298 2.508 31.8418 2.512 31.7538 2.472C31.6738 2.432 31.6178 2.4 31.5858 2.376C31.5538 2.352 31.4898 2.276 31.3938 2.148C31.3058 2.012 31.2498 1.928 31.2258 1.896C30.8178 1.392 30.2898 1.14 29.6418 1.14C29.0018 1.14 28.3978 1.348 27.8298 1.764C27.2698 2.172 26.8178 2.712 26.4738 3.384C26.1298 4.056 25.9578 4.756 25.9578 5.484C25.9578 6.38 26.2538 7.112 26.8458 7.68C27.4458 8.248 28.2378 8.532 29.2218 8.532C30.2138 8.532 31.0818 8.256 31.8258 7.704C31.9458 7.616 32.0738 7.488 32.2098 7.32C32.3538 7.152 32.4738 7.032 32.5698 6.96C32.6738 6.888 32.7698 6.856 32.8578 6.864C32.9538 6.872 33.0858 6.9 33.2538 6.948C32.9098 7.62 32.3338 8.144 31.5258 8.52C30.7258 8.888 29.8178 9.072 28.8018 9.072C27.7858 9.072 26.9258 8.788 26.2218 8.22C25.5178 7.652 25.1658 6.828 25.1658 5.748C25.1658 5.076 25.2778 4.428 25.5018 3.804C25.7258 3.172 26.0338 2.616 26.4258 2.136C26.8258 1.648 27.3218 1.26 27.9138 0.972C28.5138 0.684 29.1618 0.539999 29.8578 0.539999C31.0978 0.539999 31.9218 1.1 32.3298 2.22ZM37.9492 5.544L37.8892 6.924C37.8892 7.62 37.9692 8.088 38.1292 8.328C38.2252 8.488 38.3572 8.568 38.5252 8.568C38.5732 8.568 38.6412 8.556 38.7292 8.532C38.8972 8.484 39.0372 8.508 39.1492 8.604C39.0932 8.884 38.8132 9.024 38.3092 9.024C37.9652 9.024 37.7372 8.88 37.6252 8.592C37.5372 8.376 37.4732 8.108 37.4332 7.788C37.3932 7.46 37.3612 7.236 37.3372 7.116C36.8172 8.108 36.3132 8.712 35.8252 8.928C35.5772 9.04 35.2892 9.096 34.9612 9.096C34.6332 9.096 34.3772 8.94 34.1932 8.628C34.0172 8.308 33.9292 7.844 33.9292 7.236C33.9292 6.628 34.0292 5.992 34.2292 5.328C34.4292 4.656 34.7212 4.092 35.1052 3.636C35.4892 3.172 35.9092 2.94 36.3652 2.94C37.0212 2.94 37.4572 3.212 37.6732 3.756C37.8572 4.22 37.9492 4.816 37.9492 5.544ZM35.0092 5.16C34.8972 5.592 34.8132 6.004 34.7572 6.396C34.7012 6.78 34.6732 7.124 34.6732 7.428C34.6732 7.724 34.7332 7.98 34.8532 8.196C34.9812 8.412 35.1452 8.52 35.3452 8.52C35.7772 8.52 36.1932 8.112 36.5932 7.296C36.9932 6.48 37.1932 5.72 37.1932 5.016C37.1932 4.56 37.0732 4.184 36.8332 3.888C36.6732 3.696 36.4612 3.6 36.1972 3.6C35.9412 3.6 35.7052 3.752 35.4892 4.056C35.2812 4.352 35.1212 4.72 35.0092 5.16ZM40.7238 7.824L40.7598 8.508C40.7598 8.684 40.7078 8.808 40.6038 8.88C40.5078 8.944 40.4078 8.976 40.3038 8.976C40.2078 8.976 40.1078 8.96 40.0038 8.928C39.8278 8 39.6918 6.844 39.5958 5.46C39.5078 4.076 39.4558 3.292 39.4398 3.108C39.5598 2.996 39.6838 2.94 39.8118 2.94C39.9478 2.94 40.0678 2.956 40.1718 2.988C40.2038 3.22 40.2278 3.732 40.2438 4.524C40.2598 5.316 40.2798 5.812 40.3038 6.012C40.4158 5.34 40.6158 4.712 40.9038 4.128C41.0638 3.8 41.2718 3.54 41.5278 3.348C41.7918 3.148 42.0718 3.048 42.3678 3.048C42.6718 3.048 42.9478 3.184 43.1958 3.456C43.4518 3.72 43.5798 3.96 43.5798 4.176C43.5798 4.256 43.5318 4.32 43.4358 4.368C43.3398 4.408 43.2318 4.428 43.1118 4.428C42.9998 4.428 42.9118 4.384 42.8478 4.296C42.7838 4.208 42.7398 4.112 42.7158 4.008C42.6918 3.896 42.6398 3.796 42.5598 3.708C42.4798 3.62 42.3718 3.576 42.2358 3.576C41.8758 3.576 41.5678 3.9 41.3118 4.548C40.9198 5.516 40.7238 6.608 40.7238 7.824ZM44.6902 4.02C45.0982 3.396 45.6862 3.084 46.4542 3.084C47.2222 3.084 47.8342 3.396 48.2902 4.02C48.7542 4.644 48.9862 5.356 48.9862 6.156C48.9862 6.948 48.7342 7.62 48.2302 8.172C47.7262 8.724 47.0862 9 46.3102 9C45.5342 9 44.9702 8.784 44.6182 8.352C44.2662 7.912 44.0902 7.296 44.0902 6.504C44.0902 5.472 44.2902 4.644 44.6902 4.02ZM45.2182 4.656C45.1142 4.968 45.0342 5.28 44.9782 5.592C44.9302 5.904 44.9062 6.196 44.9062 6.468C44.9062 6.732 44.9262 6.976 44.9662 7.2C45.0062 7.416 45.0742 7.632 45.1702 7.848C45.2662 8.056 45.4102 8.224 45.6022 8.352C45.7942 8.472 46.0222 8.532 46.2862 8.532C46.8222 8.532 47.2702 8.312 47.6302 7.872C47.9982 7.432 48.1822 6.9 48.1822 6.276C48.1822 5.652 48.0142 5.048 47.6782 4.464C47.3502 3.872 46.9462 3.576 46.4662 3.576C46.1782 3.576 45.9262 3.676 45.7102 3.876C45.4942 4.076 45.3302 4.336 45.2182 4.656ZM51.149 3.372C50.941 3.764 50.837 4.348 50.837 5.124C50.837 6.292 51.057 7.224 51.497 7.92C51.753 8.328 52.057 8.532 52.409 8.532C52.769 8.532 53.057 8.344 53.273 7.968C53.529 7.504 53.657 6.864 53.657 6.048C53.657 5.024 53.513 4.268 53.225 3.78C53.097 3.548 53.021 3.38 52.997 3.276C52.981 3.172 53.009 3.096 53.081 3.048C53.153 3 53.273 2.976 53.441 2.976C53.929 2.976 54.249 3.48 54.401 4.488C54.449 4.768 54.473 5.048 54.473 5.328C54.473 6.056 54.329 6.784 54.041 7.512C53.633 8.512 52.989 9.012 52.109 9.012C51.645 9.012 51.249 8.84 50.921 8.496C50.305 7.84 49.997 6.852 49.997 5.532C49.997 4.956 50.037 4.516 50.117 4.212C50.197 3.908 50.265 3.712 50.321 3.624C50.377 3.528 50.445 3.44 50.525 3.36C50.605 3.28 50.693 3.248 50.789 3.264C50.893 3.28 51.013 3.316 51.149 3.372ZM58.6731 4.2C58.6011 4.016 58.4651 3.872 58.2651 3.768C58.0651 3.664 57.8171 3.612 57.5211 3.612C57.2251 3.612 56.9451 3.7 56.6811 3.876C56.4251 4.052 56.2971 4.288 56.2971 4.584C56.2971 4.88 56.4171 5.116 56.6571 5.292C56.9051 5.46 57.2011 5.588 57.5451 5.676C57.8971 5.764 58.2491 5.86 58.6011 5.964C58.9531 6.06 59.2491 6.224 59.4891 6.456C59.7371 6.68 59.8611 6.976 59.8611 7.344C59.8611 7.88 59.6371 8.288 59.1891 8.568C58.7491 8.848 58.2171 8.988 57.5931 8.988C57.2251 8.988 56.7411 8.888 56.1411 8.688C55.5491 8.488 55.2531 8.248 55.2531 7.968C55.2531 7.76 55.4291 7.656 55.7811 7.656C55.8851 7.656 56.0211 7.72 56.1891 7.848C56.7011 8.224 57.2251 8.412 57.7611 8.412C58.0491 8.412 58.2971 8.364 58.5051 8.268C58.8891 8.084 59.0811 7.788 59.0811 7.38C59.0811 7.132 58.9571 6.932 58.7091 6.78C58.4691 6.628 58.1731 6.508 57.8211 6.42C57.4771 6.332 57.1291 6.236 56.7771 6.132C56.4251 6.028 56.1251 5.856 55.8771 5.616C55.6371 5.368 55.5171 5.056 55.5171 4.68C55.5171 4.192 55.7371 3.796 56.1771 3.492C56.6171 3.188 57.1611 3.036 57.8091 3.036C58.2491 3.036 58.6451 3.152 58.9971 3.384C59.3571 3.608 59.5371 3.936 59.5371 4.368C59.5371 4.656 59.3731 4.8 59.0451 4.8C58.9091 4.8 58.8171 4.776 58.7691 4.728C58.7291 4.68 58.7051 4.596 58.6971 4.476C58.6971 4.348 58.6891 4.256 58.6731 4.2ZM61.4997 6.564C61.4837 6.724 61.4757 6.832 61.4757 6.888C61.4757 7.368 61.6197 7.74 61.9077 8.004C62.2037 8.268 62.5517 8.4 62.9517 8.4C63.3517 8.4 63.6757 8.344 63.9237 8.232C64.1797 8.12 64.3637 8 64.4757 7.872C64.7637 7.512 65.0277 7.332 65.2677 7.332C65.3557 7.332 65.4597 7.356 65.5797 7.404C65.4997 7.796 65.1957 8.156 64.6677 8.484C64.1477 8.804 63.4917 8.964 62.6997 8.964C62.1397 8.964 61.6557 8.788 61.2477 8.436C60.8477 8.076 60.6477 7.588 60.6477 6.972C60.6477 6.356 60.7677 5.76 61.0077 5.184C61.2557 4.6 61.6077 4.104 62.0637 3.696C62.5277 3.28 62.9957 3.072 63.4677 3.072C63.9477 3.072 64.3317 3.172 64.6197 3.372C64.9157 3.564 65.0637 3.848 65.0637 4.224C65.0637 4.92 64.7517 5.496 64.1277 5.952C63.5117 6.4 62.8557 6.624 62.1597 6.624C61.9757 6.624 61.7557 6.604 61.4997 6.564ZM62.4117 6.168C62.7877 6.168 63.1237 6.048 63.4197 5.808C63.7157 5.568 63.9237 5.316 64.0437 5.052C64.1717 4.788 64.2357 4.548 64.2357 4.332C64.2357 4.116 64.1517 3.928 63.9837 3.768C63.8157 3.6 63.6197 3.516 63.3957 3.516C62.9957 3.516 62.6237 3.792 62.2797 4.344C61.9437 4.896 61.7037 5.468 61.5597 6.06C61.9117 6.132 62.1957 6.168 62.4117 6.168ZM66.9556 1.824C66.9556 1.032 66.8476 0.5 66.6316 0.228C66.7356 0.0759995 66.9156 -7.15256e-07 67.1716 -7.15256e-07C67.2196 -7.15256e-07 67.2716 0.00399947 67.3276 0.0119998C67.5276 0.212 67.6276 0.792 67.6276 1.752C67.6276 2.272 67.6036 2.876 67.5556 3.564C67.4596 4.764 67.4116 5.644 67.4116 6.204C67.4116 7.716 67.7036 8.472 68.2876 8.472C68.2876 8.472 68.4356 8.444 68.7316 8.388C68.8036 8.388 68.8636 8.42 68.9116 8.484C68.8876 8.772 68.6516 8.916 68.2036 8.916C67.7636 8.916 67.4236 8.784 67.1836 8.52C66.9436 8.248 66.7916 7.912 66.7276 7.512C66.6716 7.104 66.6436 6.768 66.6436 6.504C66.6436 6.24 66.6476 5.952 66.6556 5.64C66.6636 5.32 66.6996 4.864 66.7636 4.272C66.8916 3.072 66.9556 2.256 66.9556 1.824ZM72.978 0.167999C72.97 0.351999 72.966 0.555999 72.966 0.779999C72.966 1.004 72.978 1.236 73.002 1.476C72.89 1.604 72.738 1.668 72.546 1.668C72.306 1.668 72.186 1.476 72.186 1.092C72.186 1.076 72.186 1.016 72.186 0.912C72.186 0.808 72.186 0.716 72.186 0.636C72.194 0.548 72.21 0.448 72.234 0.335999C72.29 0.143999 72.414 0.0479994 72.606 0.0479994C72.798 0.0479994 72.922 0.0879993 72.978 0.167999ZM72.21 6.048C72.21 4.48 72.29 3.576 72.45 3.336C72.506 3.248 72.574 3.204 72.654 3.204C72.734 3.204 72.866 3.248 73.05 3.336C73.01 4.016 72.99 4.756 72.99 5.556C72.99 5.556 72.998 6.44 73.014 8.208C73.014 8.456 72.958 8.632 72.846 8.736C72.742 8.832 72.642 8.88 72.546 8.88C72.458 8.88 72.366 8.856 72.27 8.808C72.23 7.768 72.21 6.848 72.21 6.048ZM77.5403 4.2C77.4683 4.016 77.3323 3.872 77.1323 3.768C76.9323 3.664 76.6843 3.612 76.3883 3.612C76.0923 3.612 75.8123 3.7 75.5483 3.876C75.2923 4.052 75.1643 4.288 75.1643 4.584C75.1643 4.88 75.2843 5.116 75.5243 5.292C75.7723 5.46 76.0683 5.588 76.4123 5.676C76.7643 5.764 77.1163 5.86 77.4683 5.964C77.8203 6.06 78.1163 6.224 78.3563 6.456C78.6043 6.68 78.7283 6.976 78.7283 7.344C78.7283 7.88 78.5043 8.288 78.0563 8.568C77.6163 8.848 77.0843 8.988 76.4603 8.988C76.0923 8.988 75.6083 8.888 75.0083 8.688C74.4163 8.488 74.1203 8.248 74.1203 7.968C74.1203 7.76 74.2963 7.656 74.6483 7.656C74.7523 7.656 74.8883 7.72 75.0563 7.848C75.5683 8.224 76.0923 8.412 76.6283 8.412C76.9163 8.412 77.1643 8.364 77.3723 8.268C77.7563 8.084 77.9483 7.788 77.9483 7.38C77.9483 7.132 77.8243 6.932 77.5763 6.78C77.3363 6.628 77.0403 6.508 76.6883 6.42C76.3443 6.332 75.9963 6.236 75.6443 6.132C75.2923 6.028 74.9923 5.856 74.7443 5.616C74.5043 5.368 74.3843 5.056 74.3843 4.68C74.3843 4.192 74.6043 3.796 75.0443 3.492C75.4843 3.188 76.0283 3.036 76.6763 3.036C77.1163 3.036 77.5123 3.152 77.8643 3.384C78.2243 3.608 78.4043 3.936 78.4043 4.368C78.4043 4.656 78.2403 4.8 77.9123 4.8C77.7763 4.8 77.6843 4.776 77.6363 4.728C77.5963 4.68 77.5723 4.596 77.5643 4.476C77.5643 4.348 77.5563 4.256 77.5403 4.2ZM89.4939 2.22C89.3739 2.332 89.2699 2.412 89.1819 2.46C89.0939 2.508 89.0059 2.512 88.9179 2.472C88.8379 2.432 88.7819 2.4 88.7499 2.376C88.7179 2.352 88.6539 2.276 88.5579 2.148C88.4699 2.012 88.4139 1.928 88.3899 1.896C87.9819 1.392 87.4539 1.14 86.8059 1.14C86.1659 1.14 85.5619 1.348 84.9939 1.764C84.4339 2.172 83.9819 2.712 83.6379 3.384C83.2939 4.056 83.1219 4.756 83.1219 5.484C83.1219 6.38 83.4179 7.112 84.0099 7.68C84.6099 8.248 85.4019 8.532 86.3859 8.532C87.3779 8.532 88.2459 8.256 88.9899 7.704C89.1099 7.616 89.2379 7.488 89.3739 7.32C89.5179 7.152 89.6379 7.032 89.7339 6.96C89.8379 6.888 89.9339 6.856 90.0219 6.864C90.1179 6.872 90.2499 6.9 90.4179 6.948C90.0739 7.62 89.4979 8.144 88.6899 8.52C87.8899 8.888 86.9819 9.072 85.9659 9.072C84.9499 9.072 84.0899 8.788 83.3859 8.22C82.6819 7.652 82.3299 6.828 82.3299 5.748C82.3299 5.076 82.4419 4.428 82.6659 3.804C82.8899 3.172 83.1979 2.616 83.5899 2.136C83.9899 1.648 84.4859 1.26 85.0779 0.972C85.6779 0.684 86.3259 0.539999 87.0219 0.539999C88.2619 0.539999 89.0859 1.1 89.4939 2.22ZM92.2113 0.924C92.5153 0.724 92.8473 0.576 93.2073 0.48C93.5673 0.383999 93.9233 0.335999 94.2753 0.335999C94.6273 0.335999 94.9553 0.359999 95.2593 0.408C95.5713 0.448 95.8873 0.52 96.2073 0.624C96.5353 0.727999 96.8033 0.887999 97.0113 1.104C97.2193 1.32 97.3353 1.576 97.3593 1.872C97.3673 1.992 97.3193 2.084 97.2153 2.148C97.1193 2.204 97.0073 2.232 96.8793 2.232C96.7593 2.232 96.6673 2.204 96.6033 2.148C96.5473 2.084 96.4913 1.992 96.4353 1.872C96.1313 1.256 95.4673 0.948 94.4433 0.948C93.7473 0.948 93.1753 1.096 92.7273 1.392C92.2873 1.688 92.0673 2.12 92.0673 2.688C92.0673 3.008 92.1673 3.284 92.3673 3.516C92.5673 3.74 92.8273 3.916 93.1473 4.044C93.4753 4.172 93.8313 4.288 94.2153 4.392C94.6073 4.496 94.9953 4.612 95.3793 4.74C95.7713 4.868 96.1273 5.02 96.4473 5.196C96.7753 5.372 97.0393 5.62 97.2393 5.94C97.4393 6.252 97.5393 6.628 97.5393 7.068C97.5393 7.708 97.2233 8.252 96.5912 8.7C95.9673 9.148 95.1793 9.372 94.2273 9.372C93.4913 9.372 92.7713 9.216 92.0673 8.904C91.3633 8.592 91.0113 8.272 91.0113 7.944C91.0113 7.856 91.0633 7.776 91.1673 7.704C91.2713 7.624 91.3713 7.584 91.4673 7.584C91.5713 7.584 91.6673 7.616 91.7553 7.68C91.8433 7.736 91.9433 7.816 92.0553 7.92C92.1673 8.024 92.2673 8.104 92.3553 8.16C92.9633 8.544 93.6433 8.736 94.3953 8.736C94.9233 8.736 95.4393 8.576 95.9433 8.256C96.4473 7.928 96.6992 7.492 96.6992 6.948C96.6992 6.58 96.5633 6.276 96.2913 6.036C96.0193 5.788 95.6793 5.612 95.2713 5.508C94.8633 5.396 94.4193 5.272 93.9393 5.136C93.4673 5 93.0273 4.86 92.6193 4.716C92.2113 4.572 91.8713 4.34 91.5993 4.02C91.3273 3.7 91.1913 3.32 91.1913 2.88C91.1913 2.432 91.2833 2.044 91.4673 1.716C91.6593 1.38 91.9073 1.116 92.2113 0.924ZM99.7347 0.924C100.039 0.724 100.371 0.576 100.731 0.48C101.091 0.383999 101.447 0.335999 101.799 0.335999C102.151 0.335999 102.479 0.359999 102.783 0.408C103.095 0.448 103.411 0.52 103.731 0.624C104.059 0.727999 104.327 0.887999 104.535 1.104C104.743 1.32 104.859 1.576 104.883 1.872C104.891 1.992 104.843 2.084 104.739 2.148C104.643 2.204 104.531 2.232 104.403 2.232C104.283 2.232 104.191 2.204 104.127 2.148C104.071 2.084 104.015 1.992 103.959 1.872C103.655 1.256 102.991 0.948 101.967 0.948C101.271 0.948 100.699 1.096 100.251 1.392C99.8107 1.688 99.5907 2.12 99.5907 2.688C99.5907 3.008 99.6907 3.284 99.8907 3.516C100.091 3.74 100.351 3.916 100.671 4.044C100.999 4.172 101.355 4.288 101.739 4.392C102.131 4.496 102.519 4.612 102.903 4.74C103.295 4.868 103.651 5.02 103.971 5.196C104.299 5.372 104.563 5.62 104.763 5.94C104.963 6.252 105.063 6.628 105.063 7.068C105.063 7.708 104.747 8.252 104.115 8.7C103.491 9.148 102.703 9.372 101.751 9.372C101.015 9.372 100.295 9.216 99.5907 8.904C98.8867 8.592 98.5347 8.272 98.5347 7.944C98.5347 7.856 98.5867 7.776 98.6907 7.704C98.7947 7.624 98.8947 7.584 98.9907 7.584C99.0947 7.584 99.1907 7.616 99.2787 7.68C99.3667 7.736 99.4667 7.816 99.5787 7.92C99.6907 8.024 99.7907 8.104 99.8787 8.16C100.487 8.544 101.167 8.736 101.919 8.736C102.447 8.736 102.963 8.576 103.467 8.256C103.971 7.928 104.223 7.492 104.223 6.948C104.223 6.58 104.087 6.276 103.815 6.036C103.543 5.788 103.203 5.612 102.795 5.508C102.387 5.396 101.943 5.272 101.463 5.136C100.991 5 100.551 4.86 100.143 4.716C99.7347 4.572 99.3947 4.34 99.1227 4.02C98.8507 3.7 98.7147 3.32 98.7147 2.88C98.7147 2.432 98.8067 2.044 98.9907 1.716C99.1827 1.38 99.4307 1.116 99.7347 0.924ZM107.126 5.424L109.43 5.508C109.958 5.508 110.334 5.488 110.558 5.448C110.79 5.4 110.93 5.376 110.978 5.376C111.226 5.376 111.35 5.44 111.35 5.568C111.35 5.744 111.21 5.88 110.93 5.976C110.658 6.072 110.338 6.128 109.97 6.144C109.61 6.152 109.326 6.156 109.118 6.156C108.91 6.156 108.67 6.156 108.398 6.156C108.134 6.148 107.798 6.132 107.39 6.108C106.982 6.076 106.746 6.06 106.682 6.06C106.458 6.06 106.346 6.016 106.346 5.928C106.346 5.792 106.494 5.656 106.79 5.52C106.926 5.456 107.038 5.424 107.126 5.424ZM119.941 1.74C120.357 2.06 120.689 2.48 120.937 3C121.193 3.512 121.321 4.112 121.321 4.8C121.321 5.488 121.181 6.132 120.901 6.732C120.621 7.332 120.257 7.808 119.809 8.16C118.889 8.88 117.869 9.24 116.749 9.24C115.637 9.24 114.685 8.88 113.893 8.16C113.101 7.432 112.705 6.44 112.705 5.184C112.705 4.464 112.821 3.816 113.053 3.24C113.293 2.664 113.613 2.2 114.013 1.848C114.845 1.112 115.829 0.744 116.965 0.744C118.085 0.744 119.077 1.076 119.941 1.74ZM113.497 5.208C113.497 6.24 113.789 7.064 114.373 7.68C114.965 8.296 115.749 8.604 116.725 8.604C117.853 8.604 118.757 8.26 119.437 7.572C120.125 6.876 120.469 6 120.469 4.944C120.469 3.88 120.125 3.032 119.437 2.4C118.749 1.768 117.913 1.452 116.929 1.452C115.945 1.452 115.125 1.776 114.469 2.424C113.821 3.064 113.497 3.992 113.497 5.208ZM127.484 8.664C127.34 8.816 127.176 8.892 126.992 8.892C126.648 8.892 126.392 8.708 126.224 8.34C126.056 7.972 125.956 7.524 125.924 6.996C125.9 6.468 125.884 5.94 125.876 5.412C125.868 4.884 125.824 4.436 125.744 4.068C125.672 3.7 125.532 3.516 125.324 3.516C125.044 3.516 124.804 3.768 124.604 4.272C124.412 4.776 124.276 5.336 124.196 5.952C123.972 7.672 123.756 8.636 123.548 8.844C123.404 8.916 123.28 8.952 123.176 8.952C123.072 8.952 122.984 8.94 122.912 8.916C122.744 8.18 122.636 6.912 122.588 5.112C122.572 4.216 122.556 3.636 122.54 3.372C122.708 3.26 122.852 3.204 122.972 3.204C123.092 3.204 123.188 3.216 123.26 3.24C123.3 3.584 123.32 4.288 123.32 5.352C123.328 6.416 123.336 7.028 123.344 7.188C123.384 7.02 123.432 6.748 123.488 6.372C123.552 5.996 123.608 5.688 123.656 5.448C123.704 5.2 123.78 4.912 123.884 4.584C123.988 4.256 124.104 3.996 124.232 3.804C124.36 3.604 124.536 3.436 124.76 3.3C124.984 3.156 125.236 3.084 125.516 3.084C125.892 3.084 126.164 3.256 126.332 3.6C126.508 3.936 126.604 4.356 126.62 4.86C126.636 5.364 126.644 5.876 126.644 6.396C126.652 6.916 126.716 7.392 126.836 7.824C126.964 8.256 127.18 8.536 127.484 8.664ZM128.655 1.824C128.655 1.032 128.547 0.5 128.331 0.228C128.435 0.0759995 128.615 -7.15256e-07 128.871 -7.15256e-07C128.919 -7.15256e-07 128.971 0.00399947 129.027 0.0119998C129.227 0.212 129.327 0.792 129.327 1.752C129.327 2.272 129.303 2.876 129.255 3.564C129.159 4.764 129.111 5.644 129.111 6.204C129.111 7.716 129.403 8.472 129.987 8.472C129.987 8.472 130.135 8.444 130.431 8.388C130.503 8.388 130.563 8.42 130.611 8.484C130.587 8.772 130.351 8.916 129.903 8.916C129.463 8.916 129.123 8.784 128.883 8.52C128.643 8.248 128.491 7.912 128.427 7.512C128.371 7.104 128.343 6.768 128.343 6.504C128.343 6.24 128.347 5.952 128.355 5.64C128.363 5.32 128.399 4.864 128.463 4.272C128.591 3.072 128.655 2.256 128.655 1.824ZM133.986 3.96C133.986 3.384 134.17 3.096 134.538 3.096C134.61 3.096 134.682 3.104 134.754 3.12C134.754 3.216 134.754 3.476 134.754 3.9C134.754 4.324 134.81 5.172 134.922 6.444C135.034 7.716 135.09 8.668 135.09 9.3C135.09 10.308 134.914 11.004 134.562 11.388C134.21 11.772 133.61 11.964 132.762 11.964C131.922 11.964 131.13 11.692 130.386 11.148C130.53 10.972 130.718 10.884 130.95 10.884C131.038 10.892 131.178 10.952 131.37 11.064C131.938 11.4 132.41 11.568 132.786 11.568C133.346 11.568 133.742 11.392 133.974 11.04C134.206 10.688 134.322 10.096 134.322 9.264C134.322 9.064 134.302 8.344 134.262 7.104C134.254 7.128 134.226 7.232 134.178 7.416C134.13 7.592 134.094 7.708 134.07 7.764C134.046 7.82 134.002 7.924 133.938 8.076C133.882 8.228 133.822 8.336 133.758 8.4C133.694 8.464 133.61 8.54 133.506 8.628C133.33 8.788 133.106 8.868 132.834 8.868C132.57 8.868 132.358 8.832 132.198 8.76C132.038 8.688 131.902 8.576 131.79 8.424C131.686 8.272 131.59 8.112 131.502 7.944C131.422 7.776 131.358 7.564 131.31 7.308C131.262 7.044 131.222 6.804 131.19 6.588C131.166 6.372 131.146 6.108 131.13 5.796C131.122 5.484 131.114 5.224 131.106 5.016C131.106 4.808 131.106 4.544 131.106 4.224V3.504C131.186 3.368 131.33 3.3 131.538 3.3C131.826 3.3 131.97 3.404 131.97 3.612L131.898 4.776C131.898 5.792 132.006 6.668 132.222 7.404C132.438 8.14 132.662 8.508 132.894 8.508C133.07 8.508 133.226 8.412 133.362 8.22C133.498 8.028 133.602 7.76 133.674 7.416C133.746 7.064 133.806 6.732 133.854 6.42C133.902 6.108 133.934 5.744 133.95 5.328C133.974 4.696 133.986 4.24 133.986 3.96ZM137.039 9.36C136.895 9.36 136.739 9.304 136.571 9.192C136.403 9.088 136.319 8.96 136.319 8.808C136.319 8.656 136.407 8.512 136.583 8.376C136.759 8.232 136.939 8.16 137.123 8.16C137.307 8.16 137.463 8.212 137.591 8.316C137.719 8.42 137.783 8.552 137.783 8.712C137.783 8.864 137.695 9.008 137.519 9.144C137.351 9.288 137.191 9.36 137.039 9.36ZM8.44 24.064L8.548 16.624C8.676 16.496 8.812 16.432 8.956 16.432C9.1 16.432 9.212 16.456 9.292 16.504C9.348 17.568 9.376 18.444 9.376 19.132L9.28 24.688C9.28 24.848 9.28 25 9.28 25.144C9.008 25.32 8.784 25.408 8.608 25.408L8.464 25.384C8.384 25.344 8.32 25.312 8.272 25.288C8.232 25.272 8.176 25.216 8.104 25.12C8.032 25.032 7.984 24.968 7.96 24.928C7.936 24.888 7.88 24.8 7.792 24.664C7.712 24.528 7.656 24.436 7.624 24.388C7.592 24.332 7.364 23.968 6.94 23.296C6.524 22.616 6.26 22.192 6.148 22.024C6.036 21.856 5.796 21.5 5.428 20.956C5.068 20.412 4.784 20.008 4.576 19.744C3.96 18.96 3.392 18.328 2.872 17.848C2.912 18.896 2.932 20.016 2.932 21.208C2.932 22.4 2.908 23.672 2.86 25.024C2.764 25.168 2.496 25.24 2.056 25.24C2.056 20.72 2.04 17.936 2.008 16.888C2.16 16.744 2.308 16.672 2.452 16.672C2.596 16.672 2.736 16.712 2.872 16.792C3.08 16.92 3.312 17.112 3.568 17.368C4.416 18.216 5.216 19.18 5.968 20.26C6.728 21.34 7.552 22.608 8.44 24.064ZM11.3738 20.02C11.7818 19.396 12.3698 19.084 13.1378 19.084C13.9058 19.084 14.5178 19.396 14.9738 20.02C15.4378 20.644 15.6698 21.356 15.6698 22.156C15.6698 22.948 15.4178 23.62 14.9138 24.172C14.4098 24.724 13.7698 25 12.9938 25C12.2178 25 11.6538 24.784 11.3018 24.352C10.9498 23.912 10.7738 23.296 10.7738 22.504C10.7738 21.472 10.9738 20.644 11.3738 20.02ZM11.9018 20.656C11.7978 20.968 11.7178 21.28 11.6618 21.592C11.6138 21.904 11.5898 22.196 11.5898 22.468C11.5898 22.732 11.6098 22.976 11.6498 23.2C11.6898 23.416 11.7578 23.632 11.8538 23.848C11.9498 24.056 12.0938 24.224 12.2858 24.352C12.4778 24.472 12.7058 24.532 12.9698 24.532C13.5058 24.532 13.9538 24.312 14.3138 23.872C14.6818 23.432 14.8658 22.9 14.8658 22.276C14.8658 21.652 14.6978 21.048 14.3618 20.464C14.0338 19.872 13.6298 19.576 13.1498 19.576C12.8618 19.576 12.6098 19.676 12.3938 19.876C12.1778 20.076 12.0138 20.336 11.9018 20.656ZM23.4437 16.6C23.4437 17.2 23.4877 18.128 23.5757 19.384C23.6637 20.64 23.7077 21.584 23.7077 22.216C23.7077 23.152 23.5397 23.856 23.2037 24.328C22.8677 24.8 22.2597 25.036 21.3797 25.036C20.8517 25.036 20.3597 24.924 19.9037 24.7C19.4477 24.476 19.1317 24.176 18.9557 23.8C19.1557 23.632 19.3277 23.548 19.4717 23.548C19.6237 23.548 19.7597 23.6 19.8797 23.704C20.0077 23.8 20.1197 23.908 20.2157 24.028C20.3197 24.148 20.4957 24.26 20.7437 24.364C20.9997 24.46 21.3317 24.508 21.7397 24.508C22.1557 24.508 22.4477 24.328 22.6157 23.968C22.7917 23.608 22.8797 23.088 22.8797 22.408C22.8797 21.728 22.8397 20.884 22.7597 19.876C22.6797 18.868 22.6397 18.128 22.6397 17.656C22.6397 17.176 22.6797 16.872 22.7597 16.744C22.8397 16.616 22.9437 16.552 23.0717 16.552C23.2077 16.552 23.3317 16.568 23.4437 16.6ZM26.2464 16.924C26.5504 16.724 26.8824 16.576 27.2424 16.48C27.6024 16.384 27.9584 16.336 28.3104 16.336C28.6624 16.336 28.9904 16.36 29.2944 16.408C29.6064 16.448 29.9224 16.52 30.2424 16.624C30.5704 16.728 30.8384 16.888 31.0464 17.104C31.2544 17.32 31.3704 17.576 31.3944 17.872C31.4024 17.992 31.3544 18.084 31.2504 18.148C31.1544 18.204 31.0424 18.232 30.9144 18.232C30.7944 18.232 30.7024 18.204 30.6384 18.148C30.5824 18.084 30.5264 17.992 30.4704 17.872C30.1664 17.256 29.5024 16.948 28.4784 16.948C27.7824 16.948 27.2104 17.096 26.7624 17.392C26.3224 17.688 26.1024 18.12 26.1024 18.688C26.1024 19.008 26.2024 19.284 26.4024 19.516C26.6024 19.74 26.8624 19.916 27.1824 20.044C27.5104 20.172 27.8664 20.288 28.2504 20.392C28.6424 20.496 29.0304 20.612 29.4144 20.74C29.8064 20.868 30.1624 21.02 30.4824 21.196C30.8104 21.372 31.0744 21.62 31.2744 21.94C31.4744 22.252 31.5744 22.628 31.5744 23.068C31.5744 23.708 31.2584 24.252 30.6264 24.7C30.0024 25.148 29.2144 25.372 28.2624 25.372C27.5264 25.372 26.8064 25.216 26.1024 24.904C25.3984 24.592 25.0464 24.272 25.0464 23.944C25.0464 23.856 25.0984 23.776 25.2024 23.704C25.3064 23.624 25.4064 23.584 25.5024 23.584C25.6064 23.584 25.7024 23.616 25.7904 23.68C25.8784 23.736 25.9784 23.816 26.0904 23.92C26.2024 24.024 26.3024 24.104 26.3904 24.16C26.9984 24.544 27.6784 24.736 28.4304 24.736C28.9584 24.736 29.4744 24.576 29.9784 24.256C30.4824 23.928 30.7344 23.492 30.7344 22.948C30.7344 22.58 30.5984 22.276 30.3264 22.036C30.0544 21.788 29.7144 21.612 29.3064 21.508C28.8984 21.396 28.4544 21.272 27.9744 21.136C27.5024 21 27.0624 20.86 26.6544 20.716C26.2464 20.572 25.9064 20.34 25.6344 20.02C25.3624 19.7 25.2264 19.32 25.2264 18.88C25.2264 18.432 25.3184 18.044 25.5024 17.716C25.6944 17.38 25.9424 17.116 26.2464 16.924ZM33.1698 16.852C33.1778 16.756 33.2338 16.68 33.3378 16.624C33.4418 16.56 33.5578 16.528 33.6858 16.528C33.9018 16.528 34.0098 16.608 34.0098 16.768C33.9938 19.128 33.9338 20.9 33.8298 22.084C33.8218 22.172 33.7578 22.248 33.6378 22.312C33.5258 22.368 33.4138 22.396 33.3018 22.396C33.1018 22.396 33.0018 22.316 33.0018 22.156C33.1138 20.98 33.1698 19.212 33.1698 16.852ZM33.2658 24.172C33.3538 24.156 33.4578 24.148 33.5778 24.148C33.7058 24.148 33.8378 24.196 33.9738 24.292C34.1098 24.388 34.1778 24.52 34.1778 24.688C34.1778 24.856 34.0898 25.008 33.9138 25.144C33.7458 25.288 33.5858 25.36 33.4338 25.36C33.2898 25.36 33.1338 25.304 32.9658 25.192C32.7978 25.088 32.7138 24.976 32.7138 24.856C32.7138 24.472 32.8978 24.244 33.2658 24.172ZM39.8297 16.468C39.8057 16.676 39.7537 17.036 39.6737 17.548C39.6017 18.06 39.5457 18.48 39.5057 18.808C39.3857 19.792 39.3257 20.604 39.3257 21.244C39.3257 21.884 39.3457 22.384 39.3857 22.744C39.4337 23.096 39.5057 23.432 39.6017 23.752C39.6977 24.064 39.8377 24.312 40.0217 24.496C40.2137 24.68 40.4377 24.772 40.6937 24.772C41.0617 24.772 41.3857 24.572 41.6657 24.172C41.9537 23.772 42.1777 23.26 42.3377 22.636C42.4977 22.004 42.6337 21.368 42.7457 20.728C42.8657 20.088 42.9777 19.464 43.0817 18.856C43.1937 18.248 43.2977 17.832 43.3937 17.608C43.6097 17.464 43.7737 17.392 43.8857 17.392C43.9977 17.392 44.0817 17.404 44.1377 17.428C44.1857 17.812 44.2337 18.512 44.2817 19.528C44.3377 20.536 44.4097 21.32 44.4977 21.88C44.5937 22.44 44.7137 22.916 44.8577 23.308C45.0097 23.7 45.2337 24.028 45.5297 24.292C45.8257 24.548 46.1657 24.676 46.5497 24.676C46.9417 24.676 47.2617 24.496 47.5097 24.136C47.7577 23.776 47.9377 23.296 48.0497 22.696C48.2497 21.624 48.3497 20.52 48.3497 19.384C48.3497 18.24 48.2537 17.348 48.0617 16.708C48.2617 16.564 48.4457 16.492 48.6137 16.492C48.7817 16.492 48.9257 16.624 49.0457 16.888C49.1657 17.152 49.2497 17.488 49.2977 17.896C49.3857 18.632 49.4297 19.3 49.4297 19.9C49.4297 20.5 49.3737 21.104 49.2617 21.712C49.1497 22.32 48.9737 22.888 48.7337 23.416C48.5017 23.936 48.1737 24.352 47.7497 24.664C47.3337 24.968 46.8497 25.12 46.2977 25.12C45.9297 25.112 45.5977 25.024 45.3017 24.856C45.0137 24.68 44.7817 24.476 44.6057 24.244C44.4297 24.004 44.2697 23.692 44.1257 23.308C43.9177 22.756 43.7417 22.052 43.5977 21.196C43.2617 22.372 42.9777 23.184 42.7457 23.632C42.1777 24.712 41.3977 25.256 40.4057 25.264C39.7657 25.264 39.2857 25.032 38.9657 24.568C38.6857 24.152 38.5097 23.568 38.4377 22.816C38.4137 22.496 38.4017 22.132 38.4017 21.724C38.4017 20.388 38.6177 18.684 39.0497 16.612C39.2577 16.492 39.4217 16.432 39.5417 16.432C39.6697 16.432 39.7657 16.444 39.8297 16.468ZM51.159 20.02C51.567 19.396 52.155 19.084 52.923 19.084C53.691 19.084 54.303 19.396 54.759 20.02C55.223 20.644 55.455 21.356 55.455 22.156C55.455 22.948 55.203 23.62 54.699 24.172C54.195 24.724 53.555 25 52.779 25C52.003 25 51.439 24.784 51.087 24.352C50.735 23.912 50.559 23.296 50.559 22.504C50.559 21.472 50.759 20.644 51.159 20.02ZM51.687 20.656C51.583 20.968 51.503 21.28 51.447 21.592C51.399 21.904 51.375 22.196 51.375 22.468C51.375 22.732 51.395 22.976 51.435 23.2C51.475 23.416 51.543 23.632 51.639 23.848C51.735 24.056 51.879 24.224 52.071 24.352C52.263 24.472 52.491 24.532 52.755 24.532C53.291 24.532 53.739 24.312 54.099 23.872C54.467 23.432 54.651 22.9 54.651 22.276C54.651 21.652 54.483 21.048 54.147 20.464C53.819 19.872 53.415 19.576 52.935 19.576C52.647 19.576 52.395 19.676 52.179 19.876C51.963 20.076 51.799 20.336 51.687 20.656ZM59.8618 23.608C59.7338 23.976 59.4858 24.288 59.1178 24.544C58.7578 24.8 58.3618 24.928 57.9298 24.928C57.5058 24.928 57.1738 24.716 56.9338 24.292C56.7018 23.86 56.5858 23.264 56.5858 22.504C56.5858 20.36 56.9018 19.288 57.5338 19.288C57.6138 19.288 57.7138 19.3 57.8338 19.324C57.8098 19.452 57.7538 19.696 57.6658 20.056C57.4898 20.76 57.4018 21.38 57.4018 21.916C57.4018 22.452 57.4778 23.02 57.6298 23.62C57.7818 24.212 57.9978 24.508 58.2778 24.508C58.4218 24.508 58.5618 24.416 58.6978 24.232C58.8338 24.048 58.9418 23.856 59.0218 23.656C59.1018 23.448 59.1858 23.212 59.2738 22.948C59.3618 22.684 59.4178 22.524 59.4418 22.468C59.3218 22.004 59.2618 21.532 59.2618 21.052C59.2618 21.028 59.2618 20.956 59.2618 20.836C59.2618 20.708 59.2658 20.584 59.2738 20.464C59.2818 20.344 59.3058 20.2 59.3458 20.032C59.4258 19.696 59.6418 19.528 59.9938 19.528C60.2898 19.528 60.4378 19.976 60.4378 20.872C60.4378 21.032 60.4138 21.264 60.3658 21.568C60.3258 21.872 60.3058 22.084 60.3058 22.204C60.3058 22.572 60.4818 23.048 60.8338 23.632C61.1858 24.216 61.5138 24.508 61.8178 24.508C62.1298 24.508 62.3578 24.332 62.5018 23.98C62.6458 23.628 62.7178 23.236 62.7178 22.804C62.7178 22.308 62.6738 21.932 62.5858 21.676C62.5058 21.412 62.4538 21.24 62.4298 21.16C62.4138 21.08 62.3618 20.956 62.2738 20.788C62.1938 20.612 62.1418 20.5 62.1178 20.452C62.1018 20.404 62.0418 20.288 61.9378 20.104C61.8338 19.92 61.7738 19.816 61.7578 19.792C61.5258 19.384 61.3898 19.16 61.3498 19.12C61.5498 18.952 61.7338 18.868 61.9018 18.868C62.3898 19.22 62.7778 19.796 63.0658 20.596C63.3538 21.388 63.4978 22.112 63.4978 22.768C63.4978 23.416 63.3578 23.928 63.0778 24.304C62.8058 24.672 62.3778 24.856 61.7938 24.856C61.3858 24.856 60.9978 24.744 60.6298 24.52C60.2698 24.288 60.0138 23.984 59.8618 23.608ZM65.0683 16.852C65.0763 16.756 65.1323 16.68 65.2363 16.624C65.3403 16.56 65.4563 16.528 65.5843 16.528C65.8003 16.528 65.9083 16.608 65.9083 16.768C65.8923 19.128 65.8323 20.9 65.7283 22.084C65.7203 22.172 65.6563 22.248 65.5363 22.312C65.4243 22.368 65.3123 22.396 65.2003 22.396C65.0003 22.396 64.9003 22.316 64.9003 22.156C65.0123 20.98 65.0683 19.212 65.0683 16.852ZM65.1643 24.172C65.2523 24.156 65.3563 24.148 65.4763 24.148C65.6043 24.148 65.7363 24.196 65.8723 24.292C66.0083 24.388 66.0763 24.52 66.0763 24.688C66.0763 24.856 65.9883 25.008 65.8123 25.144C65.6443 25.288 65.4843 25.36 65.3323 25.36C65.1883 25.36 65.0323 25.304 64.8643 25.192C64.6963 25.088 64.6123 24.976 64.6123 24.856C64.6123 24.472 64.7963 24.244 65.1643 24.172Z" fill="#EEEEEE"/>
</svg>
