<svg width="154" height="38" viewBox="0 0 154 38" fill="none" xmlns="http://www.w3.org/2000/svg">
  <g clip-path="url(#clip0_570_182)">
    <path fill-rule="evenodd" clip-rule="evenodd" d="M142 26.16C142 26.16 142.28 26.16 142.82 26.16C142.963 26.1522 143.105 26.1869 143.227 26.26C143.35 26.333 143.449 26.4409 143.51 26.57C143.51 26.57 144.59 28.57 144.88 29.05C145.17 29.53 144.88 29.47 144.76 29.46C144.76 29.46 144.45 29.46 141.31 29.46C140.136 29.3703 139.032 28.8632 138.2 28.0304C137.367 27.1976 136.86 26.0943 136.77 24.92V17.92H134.3V15.28C134.3 14.92 134.71 14.87 134.71 14.87H136.78V12.25C136.784 12.1274 136.825 12.009 136.899 11.9107C136.972 11.8123 137.074 11.7388 137.19 11.7L139.49 11.04C139.83 10.94 140.08 11.04 140.08 11.39V15H143.66C144 15 144.07 15.41 144.07 15.41V18H140.07V24.06C140.07 25.82 142 26.13 142 26.13V26.16ZM131.4 29.16H129.2C128.77 29.16 128.79 28.61 128.79 28.61V18.45C128.79 17.83 127.96 17.62 127.96 17.62H123.42C122.74 17.62 122.73 18.45 122.73 18.45V28.77C122.731 28.8247 122.722 28.8791 122.702 28.93C122.682 28.9809 122.652 29.0273 122.614 29.0664C122.575 29.1056 122.53 29.1367 122.479 29.1579C122.429 29.1791 122.375 29.19 122.32 29.19H120.12C119.64 29.19 119.71 28.64 119.71 28.64V15.83C119.71 14.83 120.95 14.59 120.95 14.59H130.58C131.58 14.59 131.81 15.83 131.81 15.83V28.5C131.81 29.22 131.4 29.19 131.4 29.19V29.16ZM115.73 23.4H107.2V25.47C107.2 26.21 108.2 26.47 108.2 26.47H115C115.158 26.4803 115.312 26.5229 115.453 26.5951C115.595 26.6674 115.719 26.7677 115.82 26.89C115.82 26.89 116.43 28.14 116.65 28.68C116.87 29.22 116.24 29.23 116.24 29.23H106C104.76 29.23 104.49 27.71 104.49 27.71V16C104.49 15.33 105.49 15 105.49 15H115.81C116.81 15 117.05 16.23 117.05 16.23V22.16C117.05 23.16 115.81 23.39 115.81 23.39L115.73 23.4ZM114.21 18.45C114.21 18.45 114.13 17.76 113.53 17.76H107.88C107.88 17.76 107.2 17.94 107.2 18.45V20C107.2 20.1813 107.271 20.3553 107.399 20.4844C107.526 20.6135 107.699 20.6874 107.88 20.69H113.53C113.717 20.643 113.885 20.5369 114.007 20.3874C114.13 20.238 114.201 20.053 114.21 19.86V18.45ZM101.28 29.19H99.08C98.79 29.19 98.67 28.77 98.67 28.77V18.45C98.67 17.81 97.84 17.62 97.84 17.62H95.78C95.2 17.62 95.09 18.45 95.09 18.45V28.77C95.09 29.12 94.68 29.19 94.68 29.19H92.48C92.17 29.19 92.06 28.77 92.06 28.77V18.45C92.06 17.79 91.24 17.62 91.24 17.62H89.17C88.54 17.62 88.49 18.45 88.49 18.45V28.77C88.4945 28.8263 88.4868 28.8829 88.4673 28.936C88.4478 28.989 88.417 29.0371 88.377 29.0771C88.3371 29.117 88.2889 29.1478 88.2359 29.1673C88.1829 29.1868 88.1263 29.1946 88.07 29.19H85.87C85.8153 29.19 85.7612 29.1791 85.7108 29.1579C85.6603 29.1367 85.6147 29.1056 85.5765 29.0664C85.5383 29.0273 85.5083 28.9809 85.4883 28.93C85.4683 28.8791 85.4587 28.8247 85.46 28.77V15.69C85.46 14.94 86.56 14.59 86.56 14.59H100.32C101.42 14.59 101.69 15.97 101.69 15.97V28.77C101.69 29.25 101.28 29.19 101.28 29.19ZM81.28 23.4H72.8V25.47C72.8 26.21 73.8 26.47 73.8 26.47H80.68C80.8395 26.4807 80.9951 26.5234 81.1377 26.5956C81.2803 26.6677 81.4069 26.7679 81.51 26.89C81.51 26.89 82.11 28.14 82.33 28.68C82.55 29.22 81.92 29.23 81.92 29.23H71.56C70.32 29.23 70.05 27.71 70.05 27.71V16C70.05 15.33 71.05 15 71.05 15H81.33C82.33 15 82.57 16.23 82.57 16.23V22.16C82.57 23.16 81.33 23.39 81.33 23.39L81.28 23.4ZM79.77 18.45C79.77 18.45 79.68 17.76 79.08 17.76H73.49C73.49 17.76 72.8 17.94 72.8 18.45V20C72.8 20.0906 72.8178 20.1804 72.8525 20.2641C72.8872 20.3478 72.938 20.4239 73.0021 20.4879C73.0662 20.552 73.1422 20.6028 73.226 20.6375C73.3097 20.6722 73.3994 20.69 73.49 20.69H79.13C79.3185 20.6434 79.4872 20.5377 79.6113 20.3884C79.7355 20.239 79.8086 20.0539 79.82 19.86V18.45H79.77ZM68 29.19H62.76C61.7028 29.1398 60.7002 28.7059 59.9399 27.9696C59.1797 27.2333 58.714 26.2451 58.63 25.19C58.63 21.28 58.63 9.09003 58.63 9.09003H61.11C61.2188 9.08581 61.3273 9.10414 61.4287 9.14385C61.5301 9.18357 61.6222 9.24382 61.6992 9.32082C61.7762 9.39782 61.8365 9.48991 61.8762 9.59131C61.9159 9.6927 61.9342 9.80121 61.93 9.91003V24.37C62.085 24.7844 62.3439 25.152 62.6819 25.4374C63.0198 25.7229 63.4255 25.9166 63.86 26H66.06C66.06 26 66.78 25.77 67.3 26.69L68.4 28.62C68.4 28.62 68.48 29.17 67.99 29.17L68 29.19ZM41.44 28.36V10.19C41.4293 9.97071 41.491 9.75396 41.6157 9.57323C41.7404 9.3925 41.9212 9.25784 42.13 9.19003H55.05C55.78 9.19003 55.47 10.02 55.47 10.02C55.47 10.02 55.06 11.14 54.78 11.67C54.7017 11.8262 54.5839 11.9592 54.4383 12.0557C54.2927 12.1522 54.1243 12.2088 53.95 12.22H45.56C45.3588 12.2033 45.1591 12.2662 45.0039 12.3953C44.8486 12.5243 44.7503 12.7092 44.73 12.91V17.45H54.23C54.78 17.45 54.5 18.14 54.5 18.14C54.5 18.14 53.79 19.66 53.5 20.07C53.4022 20.1973 53.2765 20.3004 53.1326 20.3714C52.9887 20.4425 52.8305 20.4797 52.67 20.48H44.67V25.3C44.6814 25.4939 44.7545 25.679 44.8787 25.8284C45.0028 25.9777 45.1715 26.0834 45.36 26.13H54.17C54.3316 26.1128 54.4947 26.1423 54.64 26.215C54.7853 26.2877 54.9068 26.4005 54.99 26.54L56.23 28.47C56.6 29.03 56.09 29.16 56.09 29.16H42.26C41.68 29.19 41.43 28.36 41.43 28.36H41.44ZM33.3 27.22C33.3 28.79 32.47 29.15 32.47 29.15C32.47 29.15 18.32 37.31 17.4 37.83C17.1645 37.9495 16.9041 38.0118 16.64 38.0118C16.3759 38.0118 16.1155 37.9495 15.88 37.83C15.88 37.83 1.09 29.25 0.55 28.87C0.38776 28.7567 0.25377 28.6076 0.158397 28.4342C0.063025 28.2608 0.0088279 28.0677 0 27.87C0 27.87 0 10.87 0 10.09C0 9.31003 1 8.76003 1 8.76003L15.75 0.210028C16.0279 0.0709871 16.3343 -0.00140381 16.645 -0.00140381C16.9557 -0.00140381 17.2621 0.0709871 17.54 0.210028C17.54 0.210028 30.6 7.80003 32 8.62003C32.3964 8.79119 32.7297 9.08146 32.9537 9.45059C33.1777 9.81971 33.2812 10.2494 33.25 10.68C33.25 10.68 33.25 25.75 33.25 27.22H33.3ZM27.4 10.22C24.4 8.48003 17.24 4.35003 17.24 4.35003C17.021 4.24085 16.7797 4.18402 16.535 4.18402C16.2903 4.18402 16.049 4.24085 15.83 4.35003L4.22 11C4.22 11 3.45 11.46 3.46 12.08C3.47 12.7 3.46 26 3.46 26C3.471 26.1492 3.51534 26.2941 3.58976 26.4239C3.66418 26.5537 3.76678 26.6651 3.89 26.75C4.32 27.05 15.89 33.75 15.89 33.75C16.074 33.8448 16.278 33.8942 16.485 33.8942C16.692 33.8942 16.896 33.8448 17.08 33.75C17.8 33.35 28.9 26.96 28.9 26.96C28.9 26.96 29.55 26.68 29.55 25.45C29.55 25.09 29.55 23.71 29.55 21.98L16.53 29.88V26.88C16.5524 26.4862 16.6523 26.1006 16.8239 25.7454C16.9954 25.3902 17.2354 25.0724 17.53 24.81L29.09 17.81C29.425 17.3948 29.6178 16.883 29.64 16.35C29.64 15.08 29.64 13.98 29.64 13.28L16.53 21.2V18C16.517 17.6573 16.5855 17.3164 16.7298 17.0052C16.8741 16.6941 17.09 16.4216 17.36 16.21L27.4 10.22Z" fill="white"/>
    <path fill-rule="evenodd" clip-rule="evenodd" d="M150.32 11.21H148.08V6.21002C148.08 6.10002 148.2 6.00002 148.37 5.97002L149.81 5.71002C150.07 5.71002 150.32 5.78002 150.32 5.95002V11.21Z" fill="white"/>
    <path fill-rule="evenodd" clip-rule="evenodd" d="M148.08 9H150.32V14.11C150.32 14.22 150.21 14.32 150.04 14.36L148.59 14.62C148.33 14.67 148.08 14.55 148.08 14.38V9Z" fill="white"/>
    <path d="M145.09 9H153.31C153.416 9 153.518 9.04214 153.593 9.11716C153.668 9.19217 153.71 9.29391 153.71 9.4V11.25H144.71V9.36C144.719 9.26435 144.763 9.17532 144.833 9.10921C144.903 9.0431 144.994 9.00433 145.09 9Z" fill="white"/>
    </g>
    <defs>
    <clipPath id="clip0_570_182">
      <rect width="153.71" height="38" fill="white"/>
    </clipPath>
  </defs>
</svg>
